<?xml version="1.0" encoding="UTF-8"?>
<svg xmlns="http://www.w3.org/2000/svg" id="Ebene_1" data-name="Ebene 1" viewBox="0 0 110 27">
  <defs>
    <style>.cls-1{fill:#58585a;}</style>
  </defs>
  <title>logo-linkedin</title>
  <path class="cls-1" d="M108.52,21.54A.47.47,0,0,0,109,21c0-.35-.22-.53-.65-.53h-.71v1.86h.27v-.81h.34l.51.8H109l-.55-.83Zm-.31-.19h-.31v-.63h.39c.2,0,.43,0,.43.3S108.49,21.36,108.21,21.36Z"></path>
  <path class="cls-1" d="M108.24,19.69A1.76,1.76,0,1,0,110,21.45,1.74,1.74,0,0,0,108.24,19.69Zm0,3.29a1.53,1.53,0,1,1,1.5-1.53A1.5,1.5,0,0,1,108.24,23Z"></path>
  <polygon class="cls-1" points="0 3.95 4.12 3.95 4.12 18.95 11.74 18.95 11.74 22.75 0 22.75 0 3.95"></polygon>
  <path class="cls-1" d="M13.56,10h4V22.74h-4Zm2-6.33A2.3,2.3,0,1,1,13.25,6a2.3,2.3,0,0,1,2.29-2.3"></path>
  <polygon class="cls-1" points="34.06 3.95 38.02 3.95 38.02 15.18 42.5 10 47.35 10 42.16 15.89 47.24 22.75 42.27 22.75 38.07 16.45 38.02 16.45 38.02 22.75 34.06 22.75 34.06 3.95"></polygon>
  <path class="cls-1" d="M19.71,10h3.8v1.74h.05a4.16,4.16,0,0,1,3.75-2.06c4,0,4.75,2.64,4.75,6.07v7h-4v-6.2c0-1.48,0-3.38-2.06-3.38s-2.37,1.61-2.37,3.27v6.3h-4Z"></path>
  <path class="cls-1" d="M55.68,14.89a2.37,2.37,0,0,0-2.43-2.43,2.64,2.64,0,0,0-2.8,2.43ZM59,20.54a7,7,0,0,1-5.41,2.53c-4,0-7.12-2.64-7.12-6.73s3.17-6.73,7.12-6.73c3.7,0,6,2.64,6,6.73v1.24H50.46a3,3,0,0,0,3,2.48,3.37,3.37,0,0,0,2.82-1.55Z"></path>
  <path class="cls-1" d="M67.89,13.08a3,3,0,0,0-3.17,3.24,3.17,3.17,0,1,0,6.33,0,3,3,0,0,0-3.17-3.24m6.81,9.66H71.05V21.05H71a5,5,0,0,1-3.93,2c-3.8,0-6.31-2.74-6.31-6.62,0-3.56,2.22-6.83,5.86-6.83a4.78,4.78,0,0,1,4.06,1.69h.05V3.95h4Z"></path>
  <path class="cls-1" d="M103.38,0H80.62a2,2,0,0,0-2,1.93V24.77a2,2,0,0,0,2,1.93h22.75a2,2,0,0,0,2-1.93V1.93A2,2,0,0,0,103.38,0ZM86.57,22.75h-4V10h4Zm-2-14.48A2.3,2.3,0,1,1,86.89,6,2.3,2.3,0,0,1,84.59,8.27ZM101.4,22.75h-4v-6.2c0-1.48,0-3.38-2.06-3.38S93,14.79,93,16.45v6.3h-4V10h3.8v1.74h.05a4.16,4.16,0,0,1,3.75-2.06c4,0,4.75,2.64,4.75,6.07Z"></path>
</svg>
