<?xml version="1.0" encoding="UTF-8"?>
<svg xmlns="http://www.w3.org/2000/svg" id="svg2268" viewBox="0 0 1023 405">
  <defs>
    <style>.cls-1{fill:#58585a;}</style>
  </defs>
  <title>icon-xing</title>
  <g id="layer1">
    <path id="path19359" class="cls-1" d="M810.71,54.41c-2.39,0-4.41.84-5.42,2.48s-.89,3.88.23,6.1l26.87,46.51a.2.2,0,0,1,0,.23l-42.22,74.51a6.15,6.15,0,0,0,0,6.1,5.85,5.85,0,0,0,5.19,2.71H835.1c5.94,0,8.81-4,10.84-7.68l42.9-75.86c-.16-.26-27.32-47.64-27.32-47.64-2-3.52-5-7.45-11.06-7.45Zm-175,86.93c-61.67,0-95.51,36-95.51,101.15v68.64c0,62.24,29.63,93.93,88.28,93.93,47.42,0,85.82-18.54,88.51-19.87V261.91a6.29,6.29,0,0,0-6.55-6.55H631.89a6.29,6.29,0,0,0-6.55,6.55v31.61a6.29,6.29,0,0,0,6.55,6.55h36.58a.2.2,0,0,1,.23.23v53.28c0,.12-.13.19-.23.23a119.09,119.09,0,0,1-38.38,6.55c-27.94,0-41.54-17.34-41.54-52.83v-65c0-18.45,3.63-32,11.06-41.32C607.74,191,620,186,637.54,186h7.68c25.4,0,45,5.67,57.57,9.71a5.27,5.27,0,0,0,5-.68,5.91,5.91,0,0,0,2-4.74V160.08c0-3.42-1.68-5.35-6.77-7.9-6.49-3.25-25-10.84-56.9-10.84ZM8.5,144.73a4.5,4.5,0,0,0-4.06,2,5.38,5.38,0,0,0,0,5.19L69,269.59a.77.77,0,0,1,0,.45L.83,393.54a5.35,5.35,0,0,0,0,5.19,4.49,4.49,0,0,0,4.06,2h44c5,0,6.84-2.83,8.81-6.77l45.16-83.09c0-.09.13-.23.23-.23s.18.14.23.23L148.72,394c2,3.94,3.54,6.77,8.58,6.77h44.25a4.49,4.49,0,0,0,4.06-2,4.73,4.73,0,0,0,.68-2.48,6.16,6.16,0,0,0-.68-2.71L137.2,270s0-.18,0-.23,0-.19,0-.23L202,152a6.16,6.16,0,0,0,.68-2.71,4.79,4.79,0,0,0-.68-2.48,4.51,4.51,0,0,0-4.06-2H153.68c-5,0-6.84,2.84-8.81,6.77l-41.54,77.22c0,.08-.12.23-.23.23s-.18-.14-.23-.23S61.35,151.5,61.34,151.5c-1.64-3.31-3.38-6.77-8.81-6.77Zm229.85,0a6.3,6.3,0,0,0-6.55,6.55V394.22a6.3,6.3,0,0,0,6.55,6.55h35a6.3,6.3,0,0,0,6.55-6.55V151.28a6.3,6.3,0,0,0-6.55-6.55Zm93.47,0a6.49,6.49,0,0,0-6.77,6.55V394.22a6.49,6.49,0,0,0,6.77,6.55h35a6.3,6.3,0,0,0,6.55-6.55V247.68c0-.13.11-.2.23-.23s.17.12.23.23L449.69,394c1.56,3.12,4,6.77,8.81,6.77h36.58a6.3,6.3,0,0,0,6.55-6.55V151.28a6.3,6.3,0,0,0-6.55-6.55h-35a6.3,6.3,0,0,0-6.55,6.55V297.58c0,.13-.11.2-.23.23s-.39.11-.45,0L377,151.5c-1.66-3.3-3.38-6.77-8.81-6.77Z" transform="translate(-0.16)"></path>
    <path id="path19375" class="cls-1" d="M977.66,0c-5.93,0-8.51,3.74-10.64,7.57,0,0-85.61,151.82-88.43,156.8L935.06,268c2,3.52,5,7.57,11.1,7.57h39.69a5.88,5.88,0,0,0,5.27-2.54,6.2,6.2,0,0,0-.08-6.14L935,164.5a.23.23,0,0,1,0-.26L1023,8.67a6.23,6.23,0,0,0,.08-6.13A5.89,5.89,0,0,0,1017.8,0Z" transform="translate(-0.16)"></path>
  </g>
</svg>
