<?xml version="1.0" encoding="UTF-8"?>
<svg xmlns="http://www.w3.org/2000/svg" id="Ebene_1" data-name="Ebene 1" viewBox="0 0 234 146.25">
  <defs>
    <style>.cls-1{fill:#fff;}</style>
  </defs>
  <title>logo-fbm</title>
  <path class="cls-1" d="M231.36,107.9C224.82,122.32,219,124,217.31,124c-.56,0-2.51,0-2.51-2.59,0-1.77,2.09-10.89,2.65-13.47l4.73-20a33.51,33.51,0,0,0,1.11-7.62c0-7.49-6-10.62-12-10.62-9,0-17.25,6.94-22.54,16.2A19,19,0,0,0,189.9,80c0-7.62-6.19-10.48-11.9-10.48-9,0-17.18,6.94-22.47,16.2a19,19,0,0,0,1.12-5.85c0-7.62-6.26-10.35-12-10.35-6.12,0-11.33,2.88-15.64,7.1.43.73.83,1.5,1.2,2.31A28.41,28.41,0,0,1,132.45,77c3.48-2.72,6-3.26,7.38-3.26,2.22,0,4.87,1.22,4.87,4.63,0,2.18-.84,5.85-1.82,10.07l-9.32,38.65h12.52l5.29-21.77c2.22-8.16,5.84-21.37,15.3-28.72,2.92-2.18,5-2.72,6.4-2.72,2.23,0,4.87,1.22,4.87,4.63,0,2.18-.84,5.85-1.82,10.07l-9.32,38.65h12.52l5.29-21.77c2.23-8.17,5.85-21.37,15.31-28.72,2.92-2.18,5-2.73,6.4-2.73,1.8,0,4.87,1,4.87,4.49a36.59,36.59,0,0,1-1.25,7.35l-6.4,26.81a31.37,31.37,0,0,0-1.11,6.94c0,7.76,6.12,9.12,9.18,9.12,5.29,0,15.44-3.4,22.39-20Z"></path>
  <path class="cls-1" d="M109.82,103.14c-2.08,7.89-6.12,23.27-18.5,23.27a9.7,9.7,0,0,1-5.38-1.59c-2.65-1.75-4.49-4.93-4.49-9.44,0-5,3.34-20.69,6.26-28.45,2.92-7.48,7.93-14.56,15.86-14.56a9.85,9.85,0,0,1,4.06.84c3.23,1.46,5.68,4.9,5.68,10.86,0,5.58-1.81,12.8-3.48,19.06m-4.74-33.48a18.89,18.89,0,0,0-15.16,7.76l-1,1.36L95.8,49.27c1.89-8.15,4.52-19.32.63-31.65C93.14,6.91,86.82,2.78,83.8,1.39A14.59,14.59,0,0,0,77.55,0C74.2,0,66.69,1,59,9.3,50,18.79,47.49,30,45.6,38.12L40,62.21H29l-1.7,7.31h11l-12.07,52c-2.34,10.08-5.4,22.43-14.86,22.38-.7,0-3.2-.15-3.19-1.78,0-.54.14-.68.84-1.9a4.37,4.37,0,0,0,1-2.72c0-2.59-1.93-4.36-4.85-4.38-3.9,0-5.17,3.65-5.18,5.56,0,4.49,4.69,7.5,11.09,7.54s12.12-3.21,16.45-7.82c9.79-10.3,13-24.92,15.8-36.48l7.53-32.44h12.8l1.7-7.31H52.57L59.26,33.4C62.87,17.83,65.54,9.2,71.82,4.46a10,10,0,0,1,5.71-2,13.16,13.16,0,0,1,2.67.29,12.85,12.85,0,0,1,2.53.87A9.67,9.67,0,0,1,87,7.84c3.58,6.92,2.18,15.84-1.43,31.4L72.31,96.34c-1.11,4.9-2.14,9.38-2.14,13.87,0,13.07,9.32,18.79,19.89,18.79,19.33,0,36-18.65,36-37.17,0-15.78-12.38-22.18-21-22.18"></path>
</svg>
